<svg width="26" height="26" viewBox="0 0 26 26">
    <path d="M 20 0.1875 C 19.779 0.20725 19.587 0.348 19.4375 0.5625 L 13.28125 9.15625 C 12.98225 9.58825 13.2535 10.5045 14.3125 11.5625 C 15.3705 12.6195 16.3805 13.01475 16.8125 12.71875 L 25.46875 6.59375 C 25.90175 6.29675 25.96375 5.77425 25.59375 5.40625 L 20.65625 0.4375 C 20.47075 0.252 20.221 0.16775 20 0.1875 z M 11.4375 11.1875 C 11.350377 11.181662 11.26175 11.180375 11.15625 11.21875 C -1.37875 15.78875 6.16675 21.2345 0.09375 25.9375 C 12.99975 25.9375 15.84375 22.98875 15.84375 15.09375 C 15.60075 14.57375 14.41825 14.32475 13.28125 13.21875 C 12.286375 12.251 12.047361 11.228365 11.4375 11.1875 z"/>
</svg>
