<svg class="svg-ico" viewBox="0 0 24 24">
    <path d="M 12 2 C 11.239788 2 10.806612 2.4997645 10.59375 2.75 C 10.510734 2.8475919 10.472263 2.896699 10.4375 2.9375 C 9.8092548 3.0614376 8.9193994 3.2792018 8 3.875 C 6.9763169 4.5383771 6 5.7637665 6 7.4375 C 6 10.227187 6.916606 13.23863 7.40625 15.21875 C 7.485224 15.537972 7.3049597 17.392094 8.84375 18.75 L 9 18.875 L 9 20 C 9 20.552 9.448 21 10 21 L 11 22 L 13 22 L 14 21 C 14.552 21 15 20.552 15 20 L 15 18.875 L 15.15625 18.75 C 16.69504 17.392094 16.514776 15.537972 16.59375 15.21875 C 17.083412 13.238555 18 10.227187 18 7.4375 C 18 5.7634036 17.023714 4.5385491 16 3.875 C 15.080573 3.2790474 14.190755 3.0614408 13.5625 2.9375 C 13.527893 2.8969228 13.489224 2.8474821 13.40625 2.75 C 13.193497 2.5000458 12.760212 2 12 2 z M 12 4.1875 C 12.0502 4.248686 12.07796 4.293414 12.15625 4.375 C 12.291211 4.5156387 12.484768 4.7351343 12.9375 4.8125 C 13.374426 4.888034 14.248714 5.1362991 14.90625 5.5625 C 15.563786 5.9887009 16 6.4835964 16 7.4375 C 16 9.7718133 15.166588 12.686195 14.65625 14.75 C 14.390421 15.824508 14.541651 16.358414 14 17 L 10 17 C 9.4583495 16.358414 9.6095789 15.824508 9.34375 14.75 C 8.833394 12.68612 8 9.7718133 8 7.4375 C 8 6.4842335 8.4361831 5.9886229 9.09375 5.5625 C 9.7513169 5.1363771 10.625574 4.8880336 11.0625 4.8125 C 11.514208 4.73388 11.709085 4.5155731 11.84375 4.375 C 11.921871 4.293452 11.949854 4.2486721 12 4.1875 z"/>
</svg>
