<svg version="1.1" xmlns:xlink="http://www.w3.org/1999/xlink" x="0px" y="0px"
viewBox="0 0 64 64" style="enable-background:new 0 0 64 64;" xml:space="preserve">
<g>
  <path d="M13.4,53.5H3.6l9.9-7.8l-0.1-27.9l-9.8-7.3h9.8h13.9c5.3,0,8.7,0.2,10.3,0.6c2.5,0.6,4.5,2,6.2,4.2
  c1.7,2.2,2.5,4.9,2.5,8.4c0,2.6-0.5,4.9-1.4,6.7c-1,1.8-2.2,3.2-3.7,4.2c-1.5,1-3,1.7-4.5,2c-2.1,0.4-5.1,0.6-9,0.6h-3.6v16.2H13.4
  z M24.1,17.8V30h2.7c3.4,0,5.7-0.2,6.9-0.7c1.2-0.4,2.1-1.2,2.7-2.1c0.7-1,1-2.1,1-3.3c0-1.6-0.5-2.9-1.4-3.9
  c-0.9-1-2.1-1.7-3.5-1.9c-1-0.2-3.1-0.3-6.2-0.3H24.1z"/>
</g>
<g>
  <path d="M29.5,53.5l9.9-7.8H49V10.5h10.6v43H29.5z"/>
</g>
</svg>
