<svg viewBox="0 0 24 24" enable-background="new 0 0 24 24">
    <path style="text-indent:0;text-align:start;line-height:normal;text-transform:none;block-progression:tb;-inkscape-font-specification:Bitstream Vera Sans" d="M 11 2 L 11 6 L 9 6 L 12 10 L 15 6 L 13 6 L 13 2 L 11 2 z M 2 9 L 2 11 C 2.925 11 3.5921553 11.01129 4.03125 11.0625 C 4.4703447 11.11371 4.6319544 11.181194 4.8125 11.3125 C 5.1350755 11.547101 5.6482689 12.413258 6.53125 14 L 4.8125 15 L 9.3125 17 L 10 12 L 8.28125 13 C 7.4193015 11.394118 6.9027386 10.344037 6 9.6875 C 5.4930456 9.3188059 4.8827803 9.1362936 4.25 9.0625 C 3.6172197 8.9887064 2.925 9 2 9 z M 20.75 9 C 20.382222 9.0064008 20.06639 9.025603 19.75 9.0625 C 19.11722 9.136294 18.506954 9.3188059 18 9.6875 C 17.097261 10.344037 16.580698 11.394118 15.71875 13 L 14 12 L 14.6875 17 L 19.1875 15 L 17.46875 14 C 18.351731 12.413258 18.864925 11.547101 19.1875 11.3125 C 19.368046 11.181194 19.529655 11.113706 19.96875 11.0625 C 20.407845 11.011294 21.075 11 22 11 L 22 9 C 21.5375 9 21.117778 8.9935992 20.75 9 z M 2 17 L 2 21 L 2 22 L 3 22 L 21 22 L 22 22 L 22 21 L 22 17 L 20 17 L 20 20 L 4 20 L 4 17 L 2 17 z" overflow="visible" enable-background="accumulate" font-family="Bitstream Vera Sans"/>
</svg>
