<svg width="26" height="26" viewBox="0 0 26 26">
    <path d="M 4.875 0 C 2.182 0 0 2.182 0 4.875 L 0 21.125 C 0 23.818 2.182 26 4.875 26 L 21.125 26 C 23.818 26 26 23.818 26 21.125 L 26 4.875 C 26 2.182 23.818 0 21.125 0 L 4.875 0 z M 4.875 2 L 21.125 2 C 22.71 2 24 3.289 24 4.875 L 24 21.125 C 24 22.711 22.71 24 21.125 24 L 4.875 24 C 3.29 24 2 22.711 2 21.125 L 2 4.875 C 2 3.289 3.29 2 4.875 2 z M 11 6 C 10.447 6 10 6.447 10 7 L 10 9 L 6 9 C 5.447 9 5 9.447 5 10 L 5 19 C 5 19.553 5.447 20 6 20 L 8 20 L 8 16.5 C 8 16.224 8.224 16 8.5 16 C 8.776 16 9 16.224 9 16.5 L 9 20 L 11 20 L 11 16.5 C 11 16.224 11.224 16 11.5 16 C 11.776 16 12 16.224 12 16.5 L 12 20 L 14 20 L 14 16.5 C 14 16.224 14.224 16 14.5 16 C 14.776 16 15 16.224 15 16.5 L 15 20 L 17 20 L 17 16.5 C 17 16.224 17.224 16 17.5 16 C 17.776 16 18 16.224 18 16.5 L 18 20 L 20 20 C 20.553 20 21 19.553 21 19 L 21 10 C 21 9.447 20.553 9 20 9 L 16 9 L 16 7 C 16 6.447 15.553 6 15 6 L 11 6 z"/>
</svg>
