<svg viewBox="0 0 16 16">
    <path d="M 11 1 C 9.3489059 1 8 2.3489059 8 4 C 8 5.1130952 8.6915415 6.252247 9.3378906 7.1894531 C 9.9842397 8.1266593 10.630859 8.8359375 10.630859 8.8359375 A 0.50005 0.50005 0 0 0 11.369141 8.8359375 C 11.369141 8.8359375 12.01576 8.1266593 12.662109 7.1894531 C 13.308458 6.252247 14 5.1130952 14 4 C 14 2.3489059 12.651094 1 11 1 z M 11 2 C 12.110906 2 13 2.8890941 13 4 C 13 4.6369048 12.441542 5.747753 11.837891 6.6230469 C 11.418711 7.2308574 11.217363 7.4403221 11 7.6933594 C 10.782637 7.4403221 10.581289 7.2308574 10.162109 6.6230469 C 9.5584589 5.747753 9 4.6369048 9 4 C 9 2.8890941 9.8890941 2 11 2 z M 5.6210938 2.015625 C 5.5370937 1.993625 5.4472344 1.9935312 5.3652344 2.0195312 L 1.3652344 3.1445312 C 1.1492344 3.2045313 1 3.401 1 3.625 L 1 12.984375 C 1 13.295375 1.1397656 13.582437 1.3847656 13.773438 C 1.6287656 13.964438 1.9427656 14.029219 2.2597656 13.949219 L 5.5097656 13.017578 L 9.3789062 13.984375 C 9.4179062 13.994375 9.459 14 9.5 14 C 9.546 14 9.5917188 13.993469 9.6367188 13.980469 L 13.636719 12.839844 C 13.851719 12.779844 14 12.583375 14 12.359375 L 14 6.9550781 C 13.677 7.5040781 13.329 8.0085469 13 8.4355469 L 13 11.982422 L 10 12.837891 L 10 9.6074219 C 9.963 9.5744219 9.923625 9.5457656 9.890625 9.5097656 C 9.693625 9.2927656 9.363 8.9085469 9 8.4355469 L 9 12.859375 L 6 12.109375 L 6 3.140625 L 7.0605469 3.40625 C 7.0815469 3.27025 7.106625 3.1378594 7.140625 3.0058594 C 7.181625 2.8288594 7.2337812 2.6552344 7.3007812 2.4902344 C 7.3077812 2.4732344 7.3094062 2.4554531 7.3164062 2.4394531 L 5.6210938 2.015625 z M 11 3 A 1 1 0 0 0 10 4 A 1 1 0 0 0 11 5 A 1 1 0 0 0 12 4 A 1 1 0 0 0 11 3 z M 5 3.1601562 L 5 12.123047 L 2 12.984375 L 2 4.0039062 L 5 3.1601562 z"/>
</svg>
