<svg viewBox="0 0 50 50" enable-background="new 0 0 50 50">
    <path d="M 46.6875 0.0625 C 46.4375 0.0375 46.2 0.1125 46 0.3125 L 40.375 5 C 39.882301 4.4206572 37.887033 2.0713303 37.34375 1.4375 C 36.829372 0.83739194 36.078475 0.34974717 35.03125 0.46875 C 34.507638 0.5282514 33.947902 0.84740117 33.59375 1.34375 C 33.239598 1.8400988 33.059061 2.4509607 33 3.21875 C 32.798161 6.1454137 32.904024 8.3598184 32.90625 8.40625 C 31.867289 9.2527067 28.241601 12.222485 26.6875 13.59375 C 26.0875 13.19375 25.30625 12.6875 24.40625 12.6875 C 23.80625 12.6875 23.1875 12.9125 22.6875 13.3125 L 12.8125 21.6875 L 12.59375 21.90625 C 12.49375 22.10625 12.00625 22.9125 12.40625 24.3125 C 12.50625 24.5125 12.49375 24.70625 12.59375 24.90625 C 12.69375 25.10625 12.7125 25.3 12.8125 25.5 C 12.2125 26 11 27.1875 11 27.1875 C 10.9 27.2875 9.9 28.2875 10 30.1875 C 10.1 31.0875 8.40625 33.3875 6.90625 34.6875 C 5.40625 35.9875 1 39.59375 1 39.59375 C 0.2 40.29375 -0.60625 41.8125 0.59375 43.3125 L 4.90625 48.40625 C 5.10625 48.70625 6.1 50 7.5 50 C 8 50 8.7125 49.8 9.3125 49 C 10.3125 47.6 14.89375 38.20625 16.59375 34.90625 C 17.39375 37.60625 20.7125 45.7 20.8125 46 C 20.8125 46.1 20.90625 46.0875 20.90625 46.1875 C 21.00625 46.2875 21.6 47 22.5 47 C 22.9 47 23.2875 46.8 23.6875 46.5 C 24.2875 46 26.59375 43.99375 27.09375 43.59375 C 27.39375 43.39375 27.6125 43.2125 27.8125 42.8125 C 28.1125 42.1125 28.00625 41.19375 27.40625 40.09375 C 26.875568 39.138522 25.682029 36.49201 24.625 34.03125 C 26.518417 32.635836 27.345353 30.689583 26.90625 28.40625 C 32.20625 32.90625 38.1125 35.09375 45.3125 35.09375 C 47.5125 35.09375 47.90625 34 47.90625 33 L 47.90625 28.3125 C 48.00625 28.0125 48 27.1875 47.5 26.6875 C 47.3 26.3875 46.8 26 46 26 C 39.2 26 35.69375 23.5875 34.09375 22.1875 L 25 29.5 C 25 30.535417 24.618731 31.343308 23.8125 32.0625 C 23.437933 31.179394 22.838195 29.73889 22.8125 29.6875 C 22.8125 29.6875 22.6125 29.2875 22.8125 29.1875 C 23.6125 28.5875 39.40625 15.3125 39.40625 15.3125 C 39.50625 15.2125 40.30625 14.5875 40.40625 13.6875 C 40.40625 13.3875 40.20625 12.9 39.90625 12.5 L 39.6875 12.25 L 49.3125 4.09375 C 49.5125 3.89375 49.5875 3.70625 49.6875 3.40625 C 49.6875 3.20625 49.60625 2.8875 49.40625 2.6875 L 47.40625 0.40625 C 47.20625 0.20625 46.9375 0.0875 46.6875 0.0625 z M 35.25 2.46875 C 35.30277 2.46275 35.758128 2.6501081 35.84375 2.75 C 36.36391 3.3568534 38.31923 5.6645267 38.84375 6.28125 L 36.3125 8.40625 L 36.09375 8.1875 C 36.007714 8.101464 35.541449 7.7612917 34.90625 7.65625 C 34.886551 6.9347266 34.85186 5.523042 35 3.375 C 35.04094 2.8427893 35.160402 2.5817762 35.21875 2.5 C 35.2771 2.418224 35.22365 2.471749 35.25 2.46875 z"/>
</svg>
